<svg viewBox="0 0 24 24" height="24" width="24" xmlns="http://www.w3.org/2000/svg" stroke-width="1.5" class="" style="max-width: 84px; min-width: 84px; height: auto;"><path d="M 18.524 5.068 L 14.589 10.318 C 14.218 10.813 13.496 10.864 13.058 10.427 L 11.024 8.393" fill="none" stroke="#00CF9F" stroke-linecap="round" stroke-linejoin="round"></path><path d="M 15.75 20.968 C 15.75 19.525 17.313 18.623 18.563 19.344 C 19.143 19.679 19.5 20.298 19.5 20.968 C 19.5 22.411 17.938 23.313 16.688 22.592 C 16.107 22.257 15.75 21.638 15.75 20.968 Z" fill="none" stroke="currentColor" stroke-linecap="round" stroke-linejoin="round" transform="matrix(-1, 0, 0, -1, 35.25, 41.936001)"></path><path d="M 8.25 20.968 C 8.25 19.525 9.812 18.623 11.062 19.344 C 11.643 19.679 12 20.298 12 20.968 C 12 22.411 10.437 23.313 9.187 22.592 C 8.607 22.257 8.25 21.638 8.25 20.968 Z" fill="none" stroke="currentColor" stroke-linecap="round" stroke-linejoin="round" transform="matrix(-1, 0, 0, -1, 20.25, 41.936001)"></path><path d="M 0.75 10.156 L 3.079 2.269 C 3.254 1.612 3.849 1.156 4.529 1.156 L 15.347 1.156 C 16.028 1.154 16.624 1.611 16.8 2.269 L 20.038 14.423 C 20.3 15.408 21.193 16.093 22.212 16.093 L 23.25 16.093" fill="none" stroke="currentColor" stroke-linecap="round" stroke-linejoin="round" transform="matrix(-1, 0, 0, -1, 24, 17.248995)"></path></svg>